<svg 
 xmlns="http://www.w3.org/2000/svg"
 xmlns:xlink="http://www.w3.org/1999/xlink"
 width="14px" height="14px">
<path fill-rule="evenodd"  fill="rgb(255, 255, 255)"
 d="M9.755,7.000 L13.429,10.674 C14.191,11.436 14.191,12.667 13.429,13.429 C12.667,14.191 11.436,14.191 10.674,13.429 L7.000,9.755 L3.326,13.429 C2.564,14.191 1.333,14.191 0.571,13.429 C-0.191,12.667 -0.191,11.436 0.571,10.674 L4.245,7.000 L0.571,3.326 C-0.191,2.564 -0.191,1.333 0.571,0.571 C1.333,-0.191 2.564,-0.191 3.326,0.571 L7.000,4.245 L10.674,0.571 C11.436,-0.191 12.667,-0.191 13.429,0.571 C14.191,1.333 14.191,2.564 13.429,3.326 L9.755,7.000 Z"/>
</svg>