<?xml version="1.0" encoding="UTF-8"?>
<svg width="515px" height="516px" viewBox="0 0 515 516" version="1.1" xmlns="http://www.w3.org/2000/svg" xmlns:xlink="http://www.w3.org/1999/xlink">
    <!-- Generator: Sketch 51.2 (57519) - http://www.bohemiancoding.com/sketch -->
    <title>Group 2</title>
    <desc>Created with Sketch.</desc>
    <defs></defs>
    <g id="Page-1" stroke="none" stroke-width="1" fill="none" fill-rule="evenodd">
        <g id="Group-2" transform="translate(257.000000, 258.000000) rotate(-45.000000) translate(-257.000000, -258.000000) translate(-53.000000, 2.000000)">
            <path d="M428.487046,123.216468 C407.954104,114.122381 385.231802,109.070609 361.329596,109.070609 C269.650328,109.070609 195.329596,183.391341 195.329596,275.070609 C195.329596,351.217832 246.601073,415.389959 316.505129,434.948093 C314.290021,435.029533 312.064606,435.070609 309.829596,435.070609 C211.246768,435.070609 131.329596,355.153437 131.329596,256.570609 C131.329596,157.987782 211.246768,78.0706095 309.829596,78.0706095 C355.381575,78.0706095 396.948308,95.1334789 428.487041,123.216465 Z" id="Combined-Shape" fill="#DEDBEE" fill-rule="nonzero" transform="translate(279.908321, 256.570609) rotate(11.000000) translate(-279.908321, -256.570609) "></path>
            <path d="M310,424 C402.783838,424 478,348.783838 478,256 C478,163.216162 402.783838,88 310,88 C217.216162,88 142,163.216162 142,256 C142,348.783838 217.216162,424 310,424 Z M310,512 C168.615104,512 54,397.384896 54,256 C54,114.615104 168.615104,0 310,0 C451.384896,0 566,114.615104 566,256 C566,397.384896 451.384896,512 310,512 Z" id="Oval" fill="#4AE783" fill-rule="nonzero"></path>
            <path d="M36.5364443,181 L585,181 C604.329966,181 620,196.670034 620,216 L620,296 C620,315.329966 604.329966,331 585,331 L35.4697776,331 C16.1398114,331 0.46977764,315.329966 0.46977764,296 C0.46977764,295.844453 0.470814561,295.688908 0.472888336,295.533375 L1.539555,215.533375 C1.79483875,196.387094 17.3884614,181 36.5364443,181 Z" id="Rectangle" fill="#0EC651" fill-rule="nonzero"></path>
            <text id="cleaned" font-family="ArlonSemiBold-DEMO, Arlon" font-size="120" font-weight="500" fill="#FFFFFF">
                <tspan x="48.1" y="295">CLEANED</tspan>
            </text>
        </g>
    </g>
</svg>