<?xml version="1.0" encoding="UTF-8"?>
<svg width="16px" height="14px" viewBox="0 0 16 14" version="1.1" xmlns="http://www.w3.org/2000/svg" xmlns:xlink="http://www.w3.org/1999/xlink">
    <title>Info</title>
    <desc>Created with Sketch.</desc>
    <defs></defs>
    <g id="Page-1" stroke="none" stroke-width="1" fill="none" fill-rule="evenodd">
        <g id="Artboard" transform="translate(-594.000000, -446.000000)" fill-rule="nonzero">
            <g id="infos" transform="translate(555.000000, 446.000000)">
                <g id="Info" transform="translate(39.000000, 0.000000)">
                    <path d="M15.0043604,9.43203222 L10.3534617,1.68053436 C9.73963749,0.657494032 8.81103165,0.0751480001 7.78799133,0.0751480001 C6.764951,0.0751480001 5.83634517,0.657494032 5.22252097,1.67266482 L0.571622254,9.43203222 C0.225362451,10.0065087 0.0522325492,10.6045938 0.0522325492,11.1712008 C0.0522325492,11.6197646 0.162406123,12.0604589 0.38275327,12.4460664 C0.886403893,13.327455 1.86222697,13.8389752 3.06626674,13.8389752 L12.5097159,13.8389752 C13.7137557,13.8389752 14.6895788,13.327455 15.1932294,12.4460664 C15.4135765,12.0604589 15.5237501,11.6433732 15.5237501,11.2026789 C15.5316196,10.6203329 15.3584897,10.0143783 15.0043604,9.43203222 Z" id="Path" fill-opacity="0.350600091" fill="#8BA4ED"></path>
                    <path d="M7.78799133,3.96270124 C8.45690231,3.96270124 9.00777018,4.51356911 9.00777018,5.18248009 C9.00777018,5.85139108 8.46477185,6.40225894 7.78799133,6.40225894 C7.11908034,6.40225894 6.56821248,5.85139108 6.56821248,5.18248009 C6.56821248,4.50569957 7.1112108,3.96270124 7.78799133,3.96270124 Z M9.11794375,10.6203329 C9.09433513,10.6518111 8.48838047,11.3443307 7.48894877,11.3443307 L7.37090566,11.3443307 C6.96955907,11.3207221 6.63903835,11.1475922 6.44229982,10.8485496 C6.19834405,10.4786812 6.15899635,9.97503055 6.34786533,9.41629314 L6.67051651,8.45620914 C6.85151595,7.92108035 6.67838605,7.8345154 6.58395156,7.78729816 L6.47377798,7.77155907 C6.27703946,7.77155907 6.00160553,7.88960219 5.91504058,7.93681943 C5.83634517,7.97616714 5.73404113,7.96042806 5.67108481,7.88173265 C5.61599802,7.80303724 5.61599802,7.7007332 5.67895435,7.62990734 C5.70256297,7.59842917 6.36360441,6.85082278 7.42599244,6.91377911 C7.82733903,6.93738773 8.15785975,7.11051763 8.35459828,7.40956019 C8.60642359,7.77942861 8.63790175,8.28307924 8.44903277,8.84968619 L8.12638159,9.80977019 C7.94538215,10.344899 8.11851205,10.4314639 8.21294654,10.4786812 L8.32312011,10.4944203 C8.51985864,10.4944203 8.79529257,10.3763771 8.88185752,10.3370294 C8.96842247,10.2898122 9.06285697,10.3134208 9.12581329,10.3921162 C9.18090008,10.447203 9.18090008,10.549507 9.11794375,10.6203329 Z" id="Shape" fill="#FFFFFF"></path>
                </g>
            </g>
        </g>
    </g>
</svg>