<?xml version="1.0" encoding="utf-8"?>
<!-- Generator: Adobe Illustrator 21.0.0, SVG Export Plug-In . SVG Version: 6.00 Build 0)  -->
<svg version="1.1" id="Layer_1" xmlns="http://www.w3.org/2000/svg" xmlns:xlink="http://www.w3.org/1999/xlink" x="0px" y="0px"
	 viewBox="0 0 22 21" style="enable-background:new 0 0 22 21;" xml:space="preserve">
<style type="text/css">
	.st0{fill:#4AE783;}
</style>
<title>thumb-up-button</title>
<desc>Created with Sketch.</desc>
<g id="Page-1">
	<g id="Artboard-2-Copy-6" transform="translate(-191.000000, -372.000000)">
		<g id="light_img_1">
			<g id="thumb-up-button" transform="translate(190.650391, 372.000000)">
				<path id="Shape" class="st0" d="M1.5,20.7h2c0.6,0,1-0.4,1-1v-10c0-0.6-0.4-1-1-1h-2c-0.6,0-1,0.4-1,1v10
					C0.5,20.3,0.9,20.7,1.5,20.7z"/>
				<path id="Path" class="st0" d="M11.8,4.4L7.5,8.8v10h9l2.9-6.9c0,0,0-0.7,0-2.1l-8.7,0L11.8,4.4z M13.2,7.7l6.2,0
					c1.1,0,2,0.9,2,2v2c0,0.2,0,0.5-0.1,0.7l-3,7.1c-0.3,0.7-1,1.2-1.8,1.2h-9c-1.1,0-2-0.9-2-2c0-2.7,0-4.8,0-6.2
					c0-0.8,0-2.1,0-3.8c0-0.6,0.2-1.1,0.6-1.4l6.6-6.6c1,1.1,1.5,1.8,1.5,2.1v0.3L13.2,7.7z"/>
			</g>
		</g>
	</g>
</g>
</svg>
