<?xml version="1.0" encoding="UTF-8"?>
<svg width="22px" height="21px" viewBox="0 0 22 21" version="1.1" xmlns="http://www.w3.org/2000/svg" xmlns:xlink="http://www.w3.org/1999/xlink">
    <!-- Generator: Sketch 51.2 (57519) - http://www.bohemiancoding.com/sketch -->
    <title>thumb-up-button</title>
    <desc>Created with Sketch.</desc>
    <defs></defs>
    <g id="Page-1" stroke="none" stroke-width="1" fill="none" fill-rule="evenodd">
        <g id="Artboard-2-Copy-6" transform="translate(-191.000000, -372.000000)" fill="#FFFFFF" fill-rule="nonzero">
            <g id="light_img_1">
                <g id="thumb-up-button" transform="translate(190.650391, 372.000000)">
                    <path d="M1.46679688,20.7477839 L3.46679688,20.7477839 C4.01908162,20.7477839 4.46679688,20.3000687 4.46679688,19.7477839 L4.46679688,9.74778391 C4.46679688,9.19549916 4.01908162,8.74778391 3.46679688,8.74778391 L1.46679687,8.74778391 C0.914512125,8.74778391 0.466796875,9.19549916 0.466796875,9.74778391 L0.466796875,19.7477839 C0.466796875,20.3000687 0.914512125,20.7477839 1.46679688,20.7477839 Z" id="Shape"></path>
                    <path d="M11.8492111,4.39379686 L7.46679688,8.77621104 L7.46679688,18.7477839 L16.433617,18.7477839 L19.3666443,11.8062476 C19.3667111,11.7951787 19.366762,11.109011 19.3667969,9.7477447 L10.6852974,9.74779961 L11.8492111,4.39379686 Z M13.1667969,7.74778391 L19.3667969,7.7477447 C20.4667969,7.7477447 21.3667969,8.6477447 21.3667969,9.7477447 L21.3667969,11.7477447 C21.3667969,11.9477447 21.3667969,12.2477447 21.2667969,12.4477447 L18.2667969,19.5477839 C17.9667969,20.2477839 17.2667969,20.7477839 16.4667969,20.7477839 L7.46679688,20.7477839 C6.36679688,20.7477839 5.46679688,19.8477839 5.46679688,18.7477839 C5.46679688,16.0028921 5.46679688,13.9442232 5.46679688,12.5717773 C5.46679688,11.722001 5.46679688,10.4473365 5.46679688,8.74778391 C5.46679688,8.14778391 5.66679688,7.64778391 6.06679688,7.34778391 L12.6667969,0.747783914 C13.6667969,1.88111725 14.1667969,2.58111725 14.1667969,2.84778391 L14.1667969,3.14778391 L13.1667969,7.74778391 Z" id="Path"></path>
                </g>
            </g>
        </g>
    </g>
</svg>