<?xml version="1.0" encoding="utf-8"?>
<!-- Generator: Adobe Illustrator 21.0.0, SVG Export Plug-In . SVG Version: 6.00 Build 0)  -->
<svg version="1.1" id="Capa_1" xmlns="http://www.w3.org/2000/svg" xmlns:xlink="http://www.w3.org/1999/xlink" x="0px" y="0px"
	 viewBox="0 0 512 512" style="enable-background:new 0 0 512 512;" xml:space="preserve">
<style type="text/css">
	.st0{fill:url(#SVGID_1_);}
	.st1{fill:url(#SVGID_2_);}
	.st2{fill:url(#SVGID_3_);}
	.st3{fill:url(#SVGID_4_);}
	.st4{fill:url(#SVGID_5_);}
	.st5{fill:url(#SVGID_6_);}
	.st6{fill:url(#SVGID_7_);}
	.st7{fill:url(#SVGID_8_);}
	.st8{fill:url(#SVGID_9_);}
	.st9{fill:#9EEF6A;}
	.st10{fill:url(#SVGID_10_);}
	.st11{fill:url(#SVGID_11_);}
	.st12{fill:url(#SVGID_12_);}
</style>
<g>
	
		<linearGradient id="SVGID_1_" gradientUnits="userSpaceOnUse" x1="85.2854" y1="428.7196" x2="394.4474" y2="119.5576" gradientTransform="matrix(1.0039 0 0 -1.0039 0.5608 516.5765)">
		<stop  offset="0" style="stop-color:#EEF4FF"/>
		<stop  offset="1" style="stop-color:#CFE7FD"/>
	</linearGradient>
	<path class="st0" d="M507.4,207.5c-1.2-6.3-6.8-10.9-13.2-10.9h-31.4c-5.7,0-10.8-3.6-12.7-9c-2.5-7-5.3-13.9-8.5-20.6
		c-2.5-5.2-1.5-11.3,2.6-15.3l22.2-22.2c4.5-4.5,5.2-11.7,1.6-17C458.9,99,448.5,86.5,437,75l0,0c-11.5-11.5-24.1-21.9-37.6-31
		c-5.3-3.6-12.4-2.9-17,1.6l-22.2,22.2c-4,4-10.2,5-15.3,2.6c-6.7-3.2-13.5-6.1-20.6-8.5c-5.4-1.9-9-7-9-12.7V17.8
		c0-6.4-4.5-12-10.9-13.2C288.8,1.6,272.6,0,256,0c-16.6,0-32.8,1.6-48.5,4.6c-6.3,1.2-10.9,6.8-10.9,13.2v31.4
		c0,5.7-3.6,10.8-9,12.7c-7,2.5-13.9,5.3-20.6,8.5c-5.2,2.5-11.3,1.5-15.3-2.6l-22.2-22.2c-4.5-4.5-11.7-5.2-17-1.6
		C99,53.1,86.5,63.5,75,75c-5.7,5.7-11.2,11.8-16.4,18c-5.2,6.3-10.1,12.8-14.6,19.5c-3.6,5.3-2.9,12.4,1.6,17l22.2,22.2
		c4,4,5,10.2,2.6,15.3c-3.2,6.7-6.1,13.5-8.5,20.6c-1.9,5.4-7,9-12.7,9H17.8c-6.4,0-12,4.5-13.2,10.9C1.6,223.2,0,239.4,0,256
		s1.6,32.8,4.6,48.5c1.2,6.3,6.8,10.9,13.2,10.9h31.4c5.7,0,10.8,3.6,12.7,9c2.5,7,5.3,13.9,8.5,20.6c2.5,5.2,1.5,11.3-2.6,15.3
		l-22.2,22.2c-4.5,4.5-5.2,11.7-1.6,17c9.1,13.5,19.5,26.1,31,37.6c5.7,5.7,11.8,11.2,18,16.4c6.3,5.2,12.8,10.1,19.5,14.6
		c5.3,3.6,12.4,2.9,17-1.6l22.2-22.2c4-4,10.2-5,15.3-2.6c6.7,3.2,13.5,6.1,20.6,8.5c5.4,1.9,9,7,9,12.7v31.4
		c0,6.4,4.5,12,10.9,13.2c15.7,3,31.9,4.6,48.5,4.6c16.6,0,32.8-1.6,48.5-4.6c6.3-1.2,10.9-6.8,10.9-13.2v-31.4
		c0-5.7,3.6-10.8,9-12.7c7-2.5,13.9-5.3,20.6-8.5c5.2-2.5,11.3-1.5,15.3,2.6l22.2,22.2c4.5,4.5,11.7,5.2,17,1.6
		c13.5-9.1,26.1-19.5,37.6-31l0,0c11.5-11.5,21.9-24.1,31-37.6c3.6-5.3,2.9-12.4-1.6-17l-22.2-22.2c-4-4-5-10.2-2.6-15.3
		c3.2-6.7,6.1-13.5,8.5-20.6c1.9-5.4,7-9,12.7-9h31.4c6.4,0,12-4.5,13.2-10.9c3-15.7,4.6-31.9,4.6-48.5S510.4,223.2,507.4,207.5
		L507.4,207.5z M256,318.2c-33.9,0-61.4-27.9-61.4-62.2s27.5-62.2,61.4-62.2s61.4,27.9,61.4,62.2S289.9,318.2,256,318.2L256,318.2z"
		/>
	<g>
		
			<linearGradient id="SVGID_2_" gradientUnits="userSpaceOnUse" x1="80.4114" y1="402.5886" x2="45.2364" y2="367.4136" gradientTransform="matrix(1.0039 0 0 -1.0039 0.5608 516.5765)">
			<stop  offset="0" style="stop-color:#8AAADC;stop-opacity:0"/>
			<stop  offset="1" style="stop-color:#8AAADC"/>
		</linearGradient>
		<path class="st1" d="M82.8,67.5c-2.7,2.4-5.3,4.9-7.8,7.5c-5.7,5.7-11.2,11.8-16.4,18c-5.2,6.3-10.1,12.8-14.6,19.5
			c-3.6,5.3-2.9,12.4,1.6,17l22.2,22.2c4,4,5,10.2,2.6,15.3c0,0,17.9-29.8,35.9-51.2c6.5-7.7,6-19-1.1-26.1L82.8,67.5z"/>
		
			<linearGradient id="SVGID_3_" gradientUnits="userSpaceOnUse" x1="421.7042" y1="410.6494" x2="461.2042" y2="368.1494" gradientTransform="matrix(1.0039 0 0 -1.0039 0.5608 516.5765)">
			<stop  offset="0" style="stop-color:#8AAADC;stop-opacity:0"/>
			<stop  offset="1" style="stop-color:#8AAADC"/>
		</linearGradient>
		<path class="st2" d="M468,112.5C458.9,99,448.5,86.5,437,75l0,0c-2.6-2.6-5.2-5.1-7.8-7.5l-22.3,22.3c-7.1,7.1-7.6,18.4-1.1,26.1
			c18,21.3,35.9,51.2,35.9,51.2c-2.5-5.2-1.5-11.3,2.6-15.3l22.2-22.2C470.9,125,471.6,117.9,468,112.5L468,112.5z"/>
	</g>
	<g>
		
			<linearGradient id="SVGID_4_" gradientUnits="userSpaceOnUse" x1="30.2414" y1="255.2256" x2="30.2414" y2="190.5586" gradientTransform="matrix(1.0039 0 0 -1.0039 0.5608 516.5765)">
			<stop  offset="0" style="stop-color:#8AAADC;stop-opacity:0"/>
			<stop  offset="1" style="stop-color:#8AAADC"/>
		</linearGradient>
		<path class="st3" d="M61.8,324.3L61.8,324.3c-1.9-5.3-7-8.9-12.7-8.9H17.8c-6.4,0-12-4.5-13.2-10.9C1.6,288.8,0,272.6,0,256
			c0-1.9,0-3.8,0.1-5.7h40.7c2.1,0,4,0.3,5.9,0.8c2.1,0.6,3.6,2.6,3.6,4.8v0C50.2,279.9,54.3,302.9,61.8,324.3L61.8,324.3z"/>
		
			<linearGradient id="SVGID_5_" gradientUnits="userSpaceOnUse" x1="478.6414" y1="255.2256" x2="478.6414" y2="190.5586" gradientTransform="matrix(1.0039 0 0 -1.0039 0.5608 516.5765)">
			<stop  offset="0" style="stop-color:#8AAADC;stop-opacity:0"/>
			<stop  offset="1" style="stop-color:#8AAADC"/>
		</linearGradient>
		<path class="st4" d="M512,256c0,16.6-1.6,32.8-4.6,48.5c-1.2,6.3-6.8,10.9-13.2,10.9h-31.4c-5.7,0-10.8,3.6-12.7,9v-0.1
			c7.5-21.4,11.6-44.4,11.6-68.3c0,0,0,0,0,0c0-2.2,1.4-4.2,3.6-4.8c1.9-0.5,3.9-0.8,5.9-0.8h40.7C512,252.2,512,254.1,512,256
			L512,256z"/>
	</g>
	
		<linearGradient id="SVGID_6_" gradientUnits="userSpaceOnUse" x1="254.4414" y1="134.5586" x2="254.4414" y2="11.4936" gradientTransform="matrix(1.0039 0 0 -1.0039 0.5608 516.5765)">
		<stop  offset="0" style="stop-color:#8AAADC;stop-opacity:0"/>
		<stop  offset="1" style="stop-color:#8AAADC"/>
	</linearGradient>
	<path class="st5" d="M71.2,347.4c1.2,4.6,0,9.5-3.5,12.9l-22.2,22.2c-4.5,4.5-5.2,11.7-1.6,17c9.1,13.5,19.5,26.1,31,37.6
		c5.7,5.7,11.8,11.2,18,16.4c6.3,5.2,12.8,10.1,19.5,14.6c5.3,3.6,12.4,2.9,17-1.6l22.2-22.2c4-4,10.2-5,15.3-2.6
		c6.7,3.2,13.5,6.1,20.6,8.5c5.4,1.9,9,7,9,12.7v31.4c0,6.4,4.5,12,10.9,13.2c15.7,3,31.9,4.6,48.5,4.6s32.8-1.6,48.5-4.6
		c6.3-1.2,10.9-6.8,10.9-13.2v-31.4c0-5.7,3.6-10.8,9-12.7c7-2.5,13.9-5.3,20.6-8.5c5.2-2.5,11.3-1.5,15.3,2.6l22.2,22.2
		c4.5,4.5,11.7,5.2,17,1.6c13.5-9.1,26.1-19.5,37.6-31l0,0c11.5-11.5,21.9-24.1,31-37.6c3.6-5.3,2.9-12.4-1.6-17l-22.2-22.2
		c-3.4-3.4-4.7-8.3-3.5-12.9H71.2z"/>
	
		<linearGradient id="SVGID_7_" gradientUnits="userSpaceOnUse" x1="369.1694" y1="144.8306" x2="143.4444" y2="370.5556" gradientTransform="matrix(1.0039 0 0 -1.0039 0.5608 516.5765)">
		<stop  offset="0" style="stop-color:#EEF4FF"/>
		<stop  offset="1" style="stop-color:#CFE7FD"/>
	</linearGradient>
	<path class="st6" d="M256,81.3c-96.3,0-174.7,78.4-174.7,174.7S159.7,430.7,256,430.7S430.7,352.3,430.7,256S352.3,81.3,256,81.3z
		 M256,318.2c-33.9,0-61.4-27.9-61.4-62.2s27.5-62.2,61.4-62.2s61.4,27.9,61.4,62.2S289.9,318.2,256,318.2z"/>
	
		<linearGradient id="SVGID_8_" gradientUnits="userSpaceOnUse" x1="298.7744" y1="215.2256" x2="175.4924" y2="338.5076" gradientTransform="matrix(1.0039 0 0 -1.0039 0.5608 516.5765)">
		<stop  offset="0" style="stop-color:#8AAADC;stop-opacity:0"/>
		<stop  offset="1" style="stop-color:#8AAADC"/>
	</linearGradient>
	<path class="st7" d="M450.2,324.4c1.9-5.4,7-9,12.7-9h31.4c6.4,0,12-4.5,13.2-10.9c0.4-2.2,0.8-4.5,1.2-6.7L365.5,154.7
		c-27.2-28.9-65.8-46.9-108.5-46.9c-82.3,0-149.2,66.9-149.2,149.2c0,42.7,18,81.3,46.9,108.5l143.1,143.1c2.2-0.4,4.5-0.8,6.7-1.2
		c6.3-1.2,10.9-6.8,10.9-13.2v-31.4c0-5.7,3.6-10.8,9-12.7c7-2.5,13.9-5.3,20.6-8.5c5.2-2.5,11.3-1.5,15.3,2.6l22.2,22.2
		c4.5,4.5,11.7,5.2,17,1.6c13.5-9.1,26.1-19.5,37.6-31l0,0c11.5-11.5,21.9-24.1,31-37.6c3.6-5.3,2.9-12.4-1.6-17l-22.2-22.2
		c-4-4-5-10.2-2.6-15.3C444.8,338.3,447.7,331.4,450.2,324.4L450.2,324.4z M256,318.2c-33.9,0-61.4-27.9-61.4-62.2
		s27.5-62.2,61.4-62.2s61.4,27.9,61.4,62.2S289.9,318.2,256,318.2z"/>
	
		<linearGradient id="SVGID_9_" gradientUnits="userSpaceOnUse" x1="422.7744" y1="91.2256" x2="329.8134" y2="184.1866" gradientTransform="matrix(1.0039 0 0 -1.0039 0.5608 516.5765)">
		<stop  offset="0" style="stop-color:#8AAADC;stop-opacity:0"/>
		<stop  offset="1" style="stop-color:#8AAADC"/>
	</linearGradient>
	<path class="st8" d="M365.5,154.7c-1.2-1.3-2.5-2.6-3.8-3.9c26.3,26.9,42.5,63.7,42.5,104.2c0,82.3-66.9,149.2-149.2,149.2
		c-40.5,0-77.3-16.2-104.2-42.5c1.3,1.3,2.6,2.6,3.9,3.8l143.1,143.1c2.2-0.4,4.5-0.8,6.7-1.2c6.3-1.2,10.9-6.8,10.9-13.2v-31.4
		c0-5.7,3.6-10.8,9-12.7c7-2.5,13.9-5.3,20.6-8.5c5.2-2.5,11.3-1.5,15.3,2.6l22.2,22.2c4.5,4.5,11.7,5.2,17,1.6
		c13.5-9.1,26.1-19.5,37.6-31l0,0c11.5-11.5,21.9-24.1,31-37.6c3.6-5.3,2.9-12.4-1.6-17l-22.2-22.2c-4-4-5-10.2-2.6-15.3
		c3.2-6.7,6.1-13.5,8.5-20.6c1.9-5.4,7-9,12.7-9h31.4c6.4,0,12-4.5,13.2-10.9c0.4-2.2,0.8-4.5,1.2-6.7L365.5,154.7z"/>
	<path class="st9" d="M256,405.2c-82.3,0-149.2-66.9-149.2-149.2S173.7,106.8,256,106.8S405.2,173.7,405.2,256
		S338.3,405.2,256,405.2L256,405.2z M256,152c-57.4,0-104,46.7-104,104s46.7,104,104,104s104-46.7,104-104S313.4,152,256,152
		L256,152z"/>
	<g>
		
			<linearGradient id="SVGID_10_" gradientUnits="userSpaceOnUse" x1="254.4414" y1="213.5586" x2="254.4414" y2="111.4806" gradientTransform="matrix(1.0039 0 0 -1.0039 0.5608 516.5765)">
			<stop  offset="0" style="stop-color:#4071F7;stop-opacity:0"/>
			<stop  offset="0.999" style="stop-color:#20D921"/>
		</linearGradient>
		<path class="st10" d="M358.6,273.1c-8.2,49.3-51.1,87-102.6,87s-94.5-37.7-102.6-87h-45.6c8.5,74.3,71.7,132.1,148.2,132.1
			s139.7-57.9,148.2-132.1H358.6z"/>
	</g>
	
		<linearGradient id="SVGID_11_" gradientUnits="userSpaceOnUse" x1="117.4112" y1="79.5284" x2="139.4112" y2="57.5284" gradientTransform="matrix(1.0039 0 0 -1.0039 0.5608 516.5765)">
		<stop  offset="0" style="stop-color:#8AAADC;stop-opacity:0"/>
		<stop  offset="1" style="stop-color:#8AAADC"/>
	</linearGradient>
	<path class="st11" d="M122.6,412.1c19.9,15.9,44.5,29.6,44.5,29.6c-5.2-2.5-11.3-1.5-15.3,2.6l-22.2,22.2c-4.5,4.5-11.7,5.2-17,1.6
		c-6.7-4.6-13.3-9.5-19.5-14.6c-6.5-5.4-12.8-11.1-18.7-17.1c0,0,0,0,0,0l22.8-22.8C104,406.6,115,406,122.6,412.1L122.6,412.1z"/>
	
		<linearGradient id="SVGID_12_" gradientUnits="userSpaceOnUse" x1="398.2241" y1="86.2759" x2="369.2731" y2="57.3259" gradientTransform="matrix(1.0039 0 0 -1.0039 0.5608 516.5765)">
		<stop  offset="0" style="stop-color:#8AAADC;stop-opacity:0"/>
		<stop  offset="1" style="stop-color:#8AAADC"/>
	</linearGradient>
	<path class="st12" d="M437.7,436.3c-0.2,0.2-0.5,0.5-0.7,0.7l0,0c-11.5,11.5-24.1,21.9-37.6,31c-5.3,3.6-12.4,2.9-17-1.6
		l-22.2-22.2c-4-4-10.2-5-15.3-2.6c0,0,24.5-13.6,44.5-29.6c7.6-6.1,18.6-5.5,25.5,1.4L437.7,436.3z"/>
</g>
</svg>
