<?xml version="1.0" encoding="UTF-8"?>
<svg width="18px" height="18px" viewBox="0 0 18 18" version="1.1" xmlns="http://www.w3.org/2000/svg" xmlns:xlink="http://www.w3.org/1999/xlink">
    <!-- Generator: Sketch 51.2 (57519) - http://www.bohemiancoding.com/sketch -->
    <title>Group</title>
    <desc>Created with Sketch.</desc>
    <defs></defs>
    <g id="Page-1" stroke="none" stroke-width="1" fill="none" fill-rule="evenodd">
        <g id="Group" fill-rule="nonzero">
            <g id="remove_icon" fill="#8DEA16">
                <rect id="Rectangle-2-Copy-2" x="0" y="0" width="18" height="18" rx="9"></rect>
            </g>
            <g id="floppy-disk" transform="translate(4.000000, 4.000000)" fill="#FFFFFF">
                <path d="M7,0 L1,0 C0.44771525,1.01453063e-16 2.83540741e-14,0.44771525 2.84217094e-14,1 L2.84217094e-14,9 C2.84893448e-14,9.55228475 0.44771525,10 1,10 L9,10 C9.55228475,10 10,9.55228475 10,9 L10,3 L7,0 Z M1,1 L6,1 L6,2.5 L1,2.5 L1,1 Z M5,8 C3.89558919,8 3,7.10441081 3,6 C3,4.89550781 3.89558919,4 5,4 C6.10441081,4 7,4.89550781 7,6 C7,7.10441081 6.10441081,8 5,8 Z" id="Shape"></path>
            </g>
        </g>
    </g>
</svg>