<svg
 xmlns="http://www.w3.org/2000/svg"
 xmlns:xlink="http://www.w3.org/1999/xlink"
 width="25px" height="25px">
<path fill-rule="evenodd"  stroke="#4AE783" stroke-width="2px" stroke-linecap="butt" stroke-linejoin="miter" fill="none"
 d="M6.000,1.000 L18.000,1.000 C20.765,1.000 23.000,3.235 23.000,6.000 L23.000,18.000 C23.000,20.765 20.765,23.000 18.000,23.000 L6.000,23.000 C3.235,23.000 1.000,20.765 1.000,18.000 L1.000,6.000 C1.000,3.235 3.235,1.000 6.000,1.000 Z"/>
<path fill-rule="evenodd"  fill="#4AE783"
 d="M9.000,6.000 L15.000,6.000 C16.659,6.000 18.000,7.341 18.000,9.000 L18.000,15.000 C18.000,16.659 16.659,18.000 15.000,18.000 L9.000,18.000 C7.341,18.000 6.000,16.659 6.000,15.000 L6.000,9.000 C6.000,7.341 7.341,6.000 9.000,6.000 Z"/>
</svg>
