<?xml version="1.0" encoding="utf-8"?>
<!-- Generator: Adobe Illustrator 21.0.0, SVG Export Plug-In . SVG Version: 6.00 Build 0)  -->
<svg version="1.1" id="Layer_1" xmlns="http://www.w3.org/2000/svg" xmlns:xlink="http://www.w3.org/1999/xlink" x="0px" y="0px"
	 viewBox="0 0 30 31" style="enable-background:new 0 0 30 31;" xml:space="preserve">
<style type="text/css">
	.st0{fill:#4AE783;}
</style>
<title>Combined Shape</title>
<desc>Created with Sketch.</desc>
<g id="Page-1">
	<g id="Artboard-2-Copy-7" transform="translate(-277.000000, -23.000000)">
		<g id="dark_img_1">
			<path id="Combined-Shape" class="st0" d="M282.2,24.8c3-1,6.2-1.4,9.8-1.4s6.9,0.5,9.8,1.4c1.8,0.6,3.2,2,3.7,3.7
				c1,3,1.4,6.2,1.4,9.8s-0.5,6.9-1.4,9.8c-0.6,1.8-2,3.2-3.7,3.7c-3,1-6.2,1.4-9.8,1.4s-6.9-0.5-9.8-1.4c-1.8-0.6-3.2-2-3.7-3.7
				c-1-3-1.4-6.2-1.4-9.8s0.5-6.9,1.4-9.8C279,26.8,280.4,25.4,282.2,24.8z M292,45.9c4.2,0,7.5-3.4,7.5-7.5s-3.4-7.5-7.5-7.5
				c-4.2,0-7.5,3.4-7.5,7.5S287.8,45.9,292,45.9z M292,25.2c-0.6,0-1.1,0.5-1.1,1.1v1.8c0,0.6,0.5,1.1,1.1,1.1
				c0.6,0,1.1-0.5,1.1-1.1v-1.8C293.1,25.7,292.6,25.2,292,25.2z M292,47.4c-0.6,0-1.1,0.5-1.1,1.1v1.8c0,0.6,0.5,1.1,1.1,1.1
				c0.6,0,1.1-0.5,1.1-1.1v-1.8C293.1,47.9,292.6,47.4,292,47.4z M305.1,38.3c0-0.6-0.5-1.1-1.1-1.1h-1.8c-0.6,0-1.1,0.5-1.1,1.1
				c0,0.6,0.5,1.1,1.1,1.1h1.8C304.6,39.4,305.1,39,305.1,38.3z M282.9,38.3c0-0.6-0.5-1.1-1.1-1.1H280c-0.6,0-1.1,0.5-1.1,1.1
				c0,0.6,0.5,1.1,1.1,1.1h1.8C282.4,39.4,282.9,39,282.9,38.3z M301.2,29.1c-0.4-0.4-1.1-0.4-1.6,0l-1.3,1.3
				c-0.4,0.4-0.4,1.1,0,1.6c0.4,0.4,1.1,0.4,1.6,0l1.3-1.3C301.7,30.2,301.7,29.5,301.2,29.1z M285.6,44.7c-0.4-0.4-1.1-0.4-1.6,0
				l-1.3,1.3c-0.4,0.4-0.4,1.1,0,1.6c0.4,0.4,1.1,0.4,1.6,0l1.3-1.3C286,45.9,286,45.2,285.6,44.7z M301.2,47.6
				c0.4-0.4,0.4-1.1,0-1.6l-1.3-1.3c-0.4-0.4-1.1-0.4-1.6,0c-0.4,0.4-0.4,1.1,0,1.6l1.3,1.3C300.1,48,300.8,48,301.2,47.6z
				 M285.6,31.9c0.4-0.4,0.4-1.1,0-1.6l-1.3-1.3c-0.4-0.4-1.1-0.4-1.6,0c-0.4,0.4-0.4,1.1,0,1.6l1.3,1.3
				C284.4,32.4,285.1,32.4,285.6,31.9z"/>
		</g>
	</g>
</g>
</svg>
