<?xml version="1.0" encoding="utf-8"?>
<!-- Generator: Adobe Illustrator 21.0.0, SVG Export Plug-In . SVG Version: 6.00 Build 0)  -->
<svg version="1.1" id="Layer_1" xmlns="http://www.w3.org/2000/svg" xmlns:xlink="http://www.w3.org/1999/xlink" x="0px" y="0px"
	 viewBox="0 0 35 34" style="enable-background:new 0 0 35 34;" xml:space="preserve">
<style type="text/css">
	.st0{fill:#4AE783;}
</style>
<title>settings (4)</title>
<desc>Created with Sketch.</desc>
<g id="Page-1">
	<g id="Artboard-2" transform="translate(-244.000000, -21.000000)">
		
			<g id="settings-_x28_4_x29_" transform="translate(262.000000, 38.000000) rotate(22.000000) translate(-262.000000, -38.000000) translate(246.000000, 21.000000)">
			<path id="Path" class="st0" d="M30.2,19.4l-0.9-0.5c0.1-0.6,0.1-1.2,0.1-1.9c0-0.6,0-1.3-0.1-1.9l0.9-0.5c1.6-0.9,2.2-3,1.2-4.6
				L29.8,7c-0.9-1.6-3-2.2-4.6-1.2l-0.9,0.5c-1-0.8-2.1-1.4-3.3-1.9l0-1c0-1.9-1.5-3.4-3.4-3.4l-3.4,0c-1.9,0-3.4,1.5-3.4,3.4v1
				C9.7,4.9,8.6,5.5,7.6,6.3L6.8,5.8C5.2,4.8,3.1,5.4,2.2,7L0.5,10c-0.9,1.6-0.4,3.7,1.2,4.6l0.9,0.5c-0.1,0.6-0.1,1.2-0.1,1.9
				c0,0.6,0,1.3,0.1,1.9l-0.9,0.5c-1.6,0.9-2.2,3-1.2,4.6L2.2,27c0.9,1.6,3,2.2,4.6,1.2l0.9-0.5c1,0.8,2.1,1.4,3.3,1.9v1
				c0,1.9,1.5,3.4,3.4,3.4h3.4c1.9,0,3.4-1.5,3.4-3.4v-1c1.2-0.5,2.3-1.1,3.3-1.9l0.9,0.5c1.6,0.9,3.7,0.4,4.6-1.2l1.7-2.9
				C32.4,22.4,31.9,20.3,30.2,19.4z"/>
			<path id="Shape" class="st0" d="M30.2,19.4l-0.9-0.5c0.1-0.6,0.1-1.2,0.1-1.9c0-0.6,0-1.3-0.1-1.9l0.9-0.5c1.6-0.9,2.2-3,1.2-4.6
				L29.8,7c-0.9-1.6-3-2.2-4.6-1.2l-0.9,0.5c-1-0.8-2.1-1.4-3.3-1.9l0-1c0-1.9-1.5-3.4-3.4-3.4l-3.4,0c-1.9,0-3.4,1.5-3.4,3.4v1
				C9.7,4.9,8.6,5.5,7.6,6.3L6.8,5.8C5.2,4.8,3.1,5.4,2.2,7L0.5,10c-0.9,1.6-0.4,3.7,1.2,4.6l0.9,0.5c-0.1,0.6-0.1,1.2-0.1,1.9
				c0,0.6,0,1.3,0.1,1.9l-0.9,0.5c-1.6,0.9-2.2,3-1.2,4.6L2.2,27c0.9,1.6,3,2.2,4.6,1.2l0.9-0.5c1,0.8,2.1,1.4,3.3,1.9v1
				c0,1.9,1.5,3.4,3.4,3.4h3.4c1.9,0,3.4-1.5,3.4-3.4v-1c1.2-0.5,2.3-1.1,3.3-1.9l0.9,0.5c1.6,0.9,3.7,0.4,4.6-1.2l1.7-2.9
				C32.4,22.4,31.9,20.3,30.2,19.4z M26,15.6c0.1,0.5,0.1,0.9,0.1,1.4s0,1-0.1,1.4l-0.3,2.3l2.8,1.6l-1.7,2.9L24,23.6L22.2,25
				c-0.7,0.6-1.6,1.1-2.4,1.4l-2.1,0.9l0,3.3l-3.4,0l0-3.3l-2.1-0.9c-0.9-0.4-1.7-0.8-2.4-1.4l-1.8-1.4l-2.8,1.6l-1.7-2.9l2.8-1.6
				l-0.3-2.3c-0.1-0.5-0.1-0.9-0.1-1.4c0-0.5,0-1,0.1-1.4l0.3-2.3l-2.8-1.6l1.7-2.9l2.8,1.6L9.7,9c0.7-0.6,1.6-1.1,2.4-1.4l2.1-0.9
				l0-3.3l3.4,0v3.3l2.1,0.9c0.9,0.4,1.7,0.8,2.4,1.4l1.8,1.4l2.8-1.6l1.7,2.9l-2.8,1.6L26,15.6z"/>
			<path id="Shape_1_" d="M16,10.2c-3.7,0-6.8,3-6.8,6.8s3,6.8,6.8,6.8c3.7,0,6.8-3,6.8-6.8C22.7,13.2,19.7,10.2,16,10.2z M16,20.4
				c-1.9,0-3.4-1.5-3.4-3.4c0-1.9,1.5-3.4,3.4-3.4c1.9,0,3.4,1.5,3.4,3.4C19.4,18.9,17.8,20.4,16,20.4z"/>
		</g>
	</g>
</g>
</svg>
