<?xml version="1.0" encoding="utf-8"?>
<!-- Generator: Adobe Illustrator 21.0.0, SVG Export Plug-In . SVG Version: 6.00 Build 0)  -->
<svg version="1.1" id="Layer_1" xmlns="http://www.w3.org/2000/svg" xmlns:xlink="http://www.w3.org/1999/xlink" x="0px" y="0px"
	 viewBox="0 0 20 22" style="enable-background:new 0 0 20 22;" xml:space="preserve">
<style type="text/css">
	.st0{fill:#E9FFDC;}
</style>
<title>trash (1)</title>
<desc>Created with Sketch.</desc>
<g id="Page-1">
	<g id="Artboard-2" transform="translate(-239.000000, -313.000000)">
		<g id="trash-_x28_1_x29_" transform="translate(239.000000, 313.000000)">
			<path id="Shape" class="st0" d="M15.6,7v11.1c0,0.6-0.5,1.1-1.1,1.1H5.6c-0.6,0-1.1-0.5-1.1-1.1V7H2.2v11.1
				c0,1.8,1.5,3.3,3.3,3.3h8.9c1.8,0,3.3-1.5,3.3-3.3V7H15.6z"/>
			<polygon id="Rectangle-path" class="st0" points="6.7,7 8.9,7 8.9,17 6.7,17 			"/>
			<polygon id="Rectangle-path_1_" class="st0" points="11.1,7 13.3,7 13.3,17 11.1,17 			"/>
			<rect id="Rectangle-path_2_" x="0" y="2" class="st0" width="20" height="2.2"/>
			<path id="Shape_1_" class="st0" d="M12.2,0H7.8C7.2,0,6.7,0.5,6.7,1.1v1.1h6.6V1.1C13.3,0.5,12.8,0,12.2,0z"/>
		</g>
	</g>
</g>
</svg>
