<?xml version="1.0" encoding="utf-8"?>
<!-- Generator: Adobe Illustrator 21.0.0, SVG Export Plug-In . SVG Version: 6.00 Build 0)  -->
<svg version="1.1" id="Layer_1" xmlns="http://www.w3.org/2000/svg" xmlns:xlink="http://www.w3.org/1999/xlink" x="0px" y="0px"
	 viewBox="0 0 24 16" style="enable-background:new 0 0 24 16;" xml:space="preserve">
<style type="text/css">
	.st0{fill:#4AE783;}
</style>
<title>eye (7)</title>
<desc>Created with Sketch.</desc>
<g id="Page-1">
	<g id="Artboard-2" transform="translate(-197.000000, -316.000000)">
		<g id="eye-_x28_7_x29_" transform="translate(197.000000, 316.000000)">
			<path id="Shape" class="st0" d="M22.4,5.2l-5.1-3.6c-2.9-2.1-7.6-2.1-10.6,0L1.6,5.2c-2.1,1.5-2.1,3.9,0,5.4l5.2,3.7
				c2.9,2.1,7.6,2.1,10.5,0l5.2-3.7C24.5,9.1,24.5,6.7,22.4,5.2z M21,8.8l-5.2,3.7c-2,1.5-5.6,1.5-7.6,0L3,8.8C2.2,8.2,2.2,7.6,3,7
				l5.1-3.6c2.1-1.5,5.6-1.5,7.7,0L20.9,7C21.8,7.6,21.8,8.2,21,8.8z"/>
			<path id="Shape_1_" class="st0" d="M12,3.9c-2.3,0-4.2,1.8-4.2,3.9c0,2.2,1.9,3.9,4.2,3.9s4.2-1.8,4.2-3.9S14.3,3.9,12,3.9z
				 M12,9.6c-1,0-1.8-0.8-1.8-1.7S11,6.2,12,6.2s1.8,0.8,1.8,1.7S13,9.6,12,9.6z"/>
		</g>
	</g>
</g>
</svg>
