<?xml version="1.0" encoding="utf-8"?>
<!-- Generator: Adobe Illustrator 21.0.0, SVG Export Plug-In . SVG Version: 6.00 Build 0)  -->
<svg version="1.1" id="Layer_1" xmlns="http://www.w3.org/2000/svg" xmlns:xlink="http://www.w3.org/1999/xlink" x="0px" y="0px"
	 viewBox="0 0 25 25" style="enable-background:new 0 0 25 25;" xml:space="preserve">
<style type="text/css">
	.st0{fill:#FFFFFF;stroke:#6F6F75;stroke-width:2;}
	.st1{fill:#6F6F75;}
</style>
<path class="st0" d="M6,1h12c2.8,0,5,2.2,5,5v12c0,2.8-2.2,5-5,5H6c-2.8,0-5-2.2-5-5V6C1,3.2,3.2,1,6,1z"/>
<path class="st1" d="M9,6h6c1.7,0,3,1.3,3,3v6c0,1.7-1.3,3-3,3H9c-1.7,0-3-1.3-3-3V9C6,7.3,7.3,6,9,6z"/>
</svg>
