<?xml version="1.0" encoding="utf-8"?>
<!-- Generator: Adobe Illustrator 21.0.0, SVG Export Plug-In . SVG Version: 6.00 Build 0)  -->
<svg version="1.1" id="Layer_1" xmlns="http://www.w3.org/2000/svg" xmlns:xlink="http://www.w3.org/1999/xlink" x="0px" y="0px"
	 viewBox="0 0 30 31" style="enable-background:new 0 0 30 31;" xml:space="preserve">
<style type="text/css">
	.st0{fill:#4AE783;}
</style>
<title>Rectangle 9</title>
<desc>Created with Sketch.</desc>
<g id="Page-1">
	<g id="Artboard-2-Copy-6" transform="translate(-277.000000, -23.000000)">
		<g id="light_img_1">
			<path id="Rectangle-9" class="st0" d="M282.2,24.8c3-1,6.2-1.4,9.8-1.4s6.9,0.5,9.8,1.4c1.8,0.6,3.2,2,3.7,3.7
				c1,3,1.4,6.2,1.4,9.8s-0.5,6.9-1.4,9.8c-0.6,1.8-2,3.2-3.7,3.7c-3,1-6.2,1.4-9.8,1.4s-6.9-0.5-9.8-1.4c-1.8-0.6-3.2-2-3.7-3.7
				c-1-3-1.4-6.2-1.4-9.8s0.5-6.9,1.4-9.8C279,26.8,280.4,25.4,282.2,24.8z M293.9,28.8c1,1.2,1.6,2.7,1.9,4.3
				c0.8,5-2.6,9.7-7.6,10.5c-1.6,0.3-3.2,0.1-4.7-0.5c-0.3-0.1-0.5,0.2-0.4,0.5c2.1,3.1,5.9,4.9,9.9,4.3c5.5-0.9,9.2-6,8.4-11.5
				c-0.6-4-3.5-7-7.1-8.1C294,28.2,293.7,28.6,293.9,28.8z M284.8,37.6l0.8-0.3c0.3-0.1,0.3-0.5,0-0.6c-0.2-0.1-0.5-0.2-0.8-0.3
				c-0.6-0.2-1-0.7-1.2-1.2l-0.3-0.8c-0.1-0.3-0.5-0.3-0.6,0c-0.1,0.2-0.2,0.5-0.3,0.8c-0.2,0.6-0.7,1-1.2,1.2
				c-0.3,0.1-0.6,0.2-0.8,0.3c-0.3,0.1-0.3,0.5,0,0.6l0.8,0.3c0.6,0.2,1,0.7,1.2,1.2c0.1,0.3,0.2,0.6,0.3,0.8c0.1,0.3,0.5,0.3,0.6,0
				l0.3-0.8C283.8,38.2,284.2,37.8,284.8,37.6z M290.6,32l0.3-0.1c0.5-0.2,0.5-0.9,0-1.1c-0.1,0-0.2-0.1-0.3-0.1
				c-0.7-0.2-1.2-0.8-1.4-1.4l-0.1-0.3c-0.2-0.5-0.9-0.5-1.1,0c0,0.1-0.1,0.2-0.1,0.3c-0.2,0.7-0.8,1.2-1.4,1.4
				c-0.1,0-0.2,0.1-0.3,0.1c-0.5,0.2-0.5,0.9,0,1.1l0.3,0.1c0.7,0.2,1.2,0.8,1.4,1.4c0,0.1,0.1,0.2,0.1,0.3c0.2,0.5,0.9,0.5,1.1,0
				l0.1-0.3C289.4,32.8,289.9,32.3,290.6,32z"/>
		</g>
	</g>
</g>
</svg>
