<?xml version="1.0" encoding="utf-8"?>
<!-- Generator: Adobe Illustrator 21.0.0, SVG Export Plug-In . SVG Version: 6.00 Build 0)  -->
<svg version="1.1" id="Layer_1" xmlns="http://www.w3.org/2000/svg" xmlns:xlink="http://www.w3.org/1999/xlink" x="0px" y="0px"
	 viewBox="0 0 35 34" style="enable-background:new 0 0 35 34;" xml:space="preserve">
<style type="text/css">
	.st0{fill:#4AE783;}
	.st1{fill:#FFFFFF;}
</style>
<title>settings (4)</title>
<desc>Created with Sketch.</desc>
<g id="settings-_x28_4_x29_" transform="translate(262.000000, 38.000000) rotate(22.000000) translate(-262.000000, -38.000000) translate(246.000000, 21.000000)">
	<path id="Path" class="st0" d="M-203.9,91.3l-0.9-0.5c0.1-0.6,0.1-1.2,0.1-1.9c0-0.6,0-1.3-0.1-1.9l0.9-0.5c1.6-0.9,2.2-3,1.2-4.6
		l-1.7-2.9c-0.9-1.6-3-2.2-4.6-1.2l-0.9,0.5c-1-0.8-2.1-1.4-3.3-1.9v-1c0-1.9-1.5-3.4-3.4-3.4h-3.4c-1.9,0-3.4,1.5-3.4,3.4v1
		c-1.2,0.5-2.3,1.1-3.3,1.9l-0.9-0.5c-1.6-0.9-3.7-0.4-4.6,1.2l-1.7,2.9c-0.9,1.6-0.4,3.7,1.2,4.6l0.9,0.5c-0.1,0.6-0.1,1.2-0.1,1.9
		c0,0.6,0,1.3,0.1,1.9l-0.9,0.5c-1.6,0.9-2.2,3-1.2,4.6l1.7,2.9c0.9,1.6,3,2.2,4.6,1.2l0.9-0.5c1,0.8,2.1,1.4,3.3,1.9l0,1
		c0,1.9,1.5,3.4,3.4,3.4h3.4c1.9,0,3.4-1.5,3.4-3.4l0-1c1.2-0.5,2.3-1.1,3.3-1.9l0.9,0.5c1.6,0.9,3.7,0.4,4.6-1.2l1.7-2.9
		C-201.7,94.3-202.2,92.2-203.9,91.3z"/>
	<path id="Shape" class="st0" d="M-203.9,91.3l-0.9-0.5c0.1-0.6,0.1-1.2,0.1-1.9c0-0.6,0-1.3-0.1-1.9l0.9-0.5c1.6-0.9,2.2-3,1.2-4.6
		l-1.7-2.9c-0.9-1.6-3-2.2-4.6-1.2l-0.9,0.5c-1-0.8-2.1-1.4-3.3-1.9v-1c0-1.9-1.5-3.4-3.4-3.4h-3.4c-1.9,0-3.4,1.5-3.4,3.4v1
		c-1.2,0.5-2.3,1.1-3.3,1.9l-0.9-0.5c-1.6-0.9-3.7-0.4-4.6,1.2l-1.7,2.9c-0.9,1.6-0.4,3.7,1.2,4.6l0.9,0.5c-0.1,0.6-0.1,1.2-0.1,1.9
		c0,0.6,0,1.3,0.1,1.9l-0.9,0.5c-1.6,0.9-2.2,3-1.2,4.6l1.7,2.9c0.9,1.6,3,2.2,4.6,1.2l0.9-0.5c1,0.8,2.1,1.4,3.3,1.9l0,1
		c0,1.9,1.5,3.4,3.4,3.4h3.4c1.9,0,3.4-1.5,3.4-3.4l0-1c1.2-0.5,2.3-1.1,3.3-1.9l0.9,0.5c1.6,0.9,3.7,0.4,4.6-1.2l1.7-2.9
		C-201.7,94.3-202.2,92.2-203.9,91.3z M-208.1,87.5c0.1,0.5,0.1,0.9,0.1,1.4c0,0.5,0,1-0.1,1.4l-0.3,2.3l2.8,1.6l-1.7,2.9l-2.8-1.6
		l-1.8,1.4c-0.7,0.6-1.6,1.1-2.4,1.4l-2.1,0.9v3.3h-3.4v-3.3l-2.1-0.9c-0.9-0.4-1.7-0.8-2.4-1.4l-1.8-1.4l-2.8,1.6l-1.7-2.9l2.8-1.6
		l-0.3-2.3c-0.1-0.5-0.1-0.9-0.1-1.4s0-1,0.1-1.4l0.3-2.3l-2.8-1.6l1.7-2.9l2.8,1.6l1.8-1.4c0.7-0.6,1.6-1.1,2.4-1.4l2.1-0.9v-3.3
		h3.4v3.3l2.1,0.9c0.9,0.4,1.7,0.8,2.4,1.4l1.8,1.4l2.8-1.6l1.7,2.9l-2.8,1.6L-208.1,87.5z"/>
	<path id="Shape_1_" class="st1" d="M-218.1,82.1c-3.7,0-6.8,3-6.8,6.8s3,6.8,6.8,6.8s6.8-3,6.8-6.8S-214.4,82.1-218.1,82.1z
		 M-218.1,92.3c-1.9,0-3.4-1.5-3.4-3.4s1.5-3.4,3.4-3.4s3.4,1.5,3.4,3.4S-216.3,92.3-218.1,92.3z"/>
</g>
</svg>
